<?xml version="1.0" encoding="UTF-8"?>
<svg width="664.77" height="664.77" data-name="Layer 1" version="1.1" viewBox="0 0 664.77 664.77" xmlns="http://www.w3.org/2000/svg" xmlns:cc="http://creativecommons.org/ns#" xmlns:dc="http://purl.org/dc/elements/1.1/" xmlns:rdf="http://www.w3.org/1999/02/22-rdf-syntax-ns#">
 <metadata>
  <rdf:RDF>
   <cc:Work rdf:about="">
    <dc:format>image/svg+xml</dc:format>
    <dc:type rdf:resource="http://purl.org/dc/dcmitype/StillImage"/>
    <dc:title>CSS_logo_2019_darkblue_no border_v08</dc:title>
   </cc:Work>
  </rdf:RDF>
 </metadata>
 <defs>
  <style>.cls-1{fill:#00293f;}</style>
 </defs>
 <title>CSS_logo_2019_darkblue_no border_v08</title>
 <path class="cls-1" d="m0 334.3c0-35.737 23.626-56.463 50.847-56.463a45.443 45.443 0 0 1 32.395 13.98l-12.837 15.619c-5.4048-5.0347-11.217-8.5728-19.013-8.5728-14.771 0-26.436 13.023-26.436 34.62 0 22.142 10.303 35.009 26.047 35.009 8.8452 0 15.805-4.3555 21.073-10.07l12.837 15.289c-8.9444 10.402-20.845 15.808-34.785 15.808-27.318 0-50.127-18.936-50.127-55.218z"/>
 <path class="cls-1" d="m89.692 373.95 13.985-16.709c7.6602 6.668 17.595 11.256 26.459 11.256 10.165 0 15.14-4.002 15.14-10.396 0-6.7822-6.123-8.958-15.533-12.827l-13.998-5.9688c-11.162-4.5396-21.737-13.708-21.737-29.36 0-17.85 15.945-32.104 38.365-32.104a49.799 49.799 0 0 1 34.65 14.116l-12.292 15.347c-7.0972-5.4434-13.843-8.4365-22.358-8.4365-8.396 0-13.74 3.4971-13.74 9.6577 0 6.6069 7.0459 9.0068 16.447 12.75l13.726 5.5596c13.154 5.3179 21.367 14.078 21.367 29.301 0 17.889-14.914 33.387-40.582 33.387a59.324 59.324 0 0 1-39.899-15.573z"/>
 <path class="cls-1" d="m243.28 378.37 6.7114-8.9531c6.9756 5.6191 14.065 9.5166 23.714 9.5166 10.545 0 15.784-5.6221 15.784-12.479 0-8.2666-9.4824-11.921-18.373-15.226-11.257-4.1152-23.957-9.6543-23.957-23.207 0-12.854 10.296-22.804 27.709-22.804a40.718 40.718 0 0 1 24.978 9.0278l-6.502 8.71c-5.5322-4.0879-11.212-7.1499-18.32-7.1499-10.12 0-14.792 5.3955-14.792 11.521 0 7.6392 8.7339 10.545 17.833 13.938 11.587 4.3672 24.497 9.081 24.497 24.372 0 13.029-10.35 23.884-29.309 23.884a48.236 48.236 0 0 1-29.973-11.151z"/>
 <path class="cls-1" d="m320.51 362.7v-44.424h-11.952v-10.292l12.561-0.78272 1.6338-22.529h11.353v22.529h21.765v11.074h-21.765v44.659c0 9.8213 3.165 15.512 12.423 15.512a26.87 26.87 0 0 0 9.1514-2.1572l2.626 10.256c-4.5059 1.5312-9.8896 2.9756-14.906 2.9756-17.098-4e-5 -22.889-10.837-22.889-26.821z"/>
 <path class="cls-1" d="m372.92 358.11v-50.902h13.595v49.146c0 14.965 4.5244 21.369 15.157 21.369 8.2129 0 13.903-4.0723 21.508-13.539v-56.977h13.595v80.336h-11.23l-1.1475-12.579h-0.45215c-7.4463 8.7686-15.467 14.562-26.496 14.562-16.926-4e-5 -24.528-10.924-24.528-31.417z"/>
 <path class="cls-1" d="m458.18 347.48c0-26.06 16.439-42.256 34.759-42.256 9.3428 0 15.467 3.5142 22.514 9.3081l-0.57422-13.78v-30.951h13.595v117.74h-11.23l-1.1475-9.4824h-0.45214c-6.2461 6.2461-14.806 11.466-24.375 11.466-20.076-4e-5 -33.088-15.273-33.088-42.047zm56.698 19.645v-42.108c-6.8564-6.1084-13.033-8.3535-19.594-8.3535-12.844 0-23.059 12.392-23.059 30.695 0 19.262 7.9697 30.73 22.048 30.73 7.4307 0 13.87-3.6201 20.605-10.963z"/>
 <path class="cls-1" d="m553.14 281.91c0-5.3389 4.1035-8.7817 9.3896-8.7817s9.3896 3.4429 9.3896 8.7817c0 5.1299-4.1035 8.7817-9.3896 8.7817s-9.3896-3.6518-9.3896-8.7817zm2.4883 25.295h13.594v80.336h-13.594z"/>
 <path class="cls-1" d="m590.31 347.48c0-26.808 17.534-42.256 37.226-42.256 19.692 0 37.227 15.448 37.227 42.256 0 26.599-17.534 42.047-37.227 42.047-19.691-4e-5 -37.226-15.448-37.226-42.047zm60.405 0c0-18.41-9.3633-30.938-23.18-30.938s-23.18 12.529-23.18 30.938c0 18.409 9.3633 30.73 23.18 30.73s23.18-12.32 23.18-30.73z"/>
 <rect class="cls-1" x="202.59" y="236.83" width="12.489" height="191.11"/>
</svg>
